# xmcd CD database file
#
# Track frame offsets:
#	150
#	25996
#	40706
#	59483
#
# Disc length: 1040 seconds
#
# Revision: 0
# Processed by: cddbd v1.5.1PL2 Copyright (c) Steve Scherf et al.
# Submitted via: CDex 1.51
#
DISCID=2d040e04
DTITLE=The3rdStage - BRAND NEW AGE "SHOCK"
DYEAR=2003
DGENRE=Pop
TTITLE0=BigBird 虹
TTITLE1=MercurySet 生きる故盲目
TTITLE2=おかき隊 アバンチュール
TTITLE3=空想的癒旋律歌劇団 五月の歌
EXTD=YEAR: 2003
EXTT0=
EXTT1=
EXTT2=
EXTT3=
PLAYORDER=
